<svg width="100" height="100" viewBox="0 0 100 100" fill="none" xmlns="http://www.w3.org/2000/svg">
<circle cx="50" cy="50" r="50" fill="url(#paint0_linear_459_554)"/>
<rect x="32" y="41" width="35" height="27" fill="white"/>
<path d="M49.5106 22L73 42H27L49.5106 22Z" fill="white"/>
<path d="M29.3778 72.8182V73.9119H24.4659V83H23.233V72.8182H29.3778ZM30.4505 83V81.9062H30.7289C30.9576 81.9062 31.1481 81.8615 31.3006 81.772C31.4531 81.6792 31.5757 81.5185 31.6685 81.2898C31.7646 81.0578 31.8375 80.7363 31.8873 80.3253C31.9403 79.911 31.9784 79.384 32.0016 78.7443L32.1408 75.3636H37.2317V83H36.0584V76.4574H33.2544L33.1351 79.1818C33.1086 79.8082 33.0523 80.3601 32.9661 80.8374C32.8832 81.3113 32.7556 81.709 32.5833 82.0305C32.4142 82.352 32.1889 82.594 31.9071 82.7564C31.6254 82.9188 31.2724 83 30.8482 83H30.4505ZM41.6316 83.179C41.1477 83.179 40.7085 83.0878 40.3141 82.9055C39.9197 82.7199 39.6065 82.4531 39.3745 82.1051C39.1425 81.7538 39.0265 81.3295 39.0265 80.8324C39.0265 80.3949 39.1126 80.0402 39.285 79.7685C39.4573 79.4934 39.6877 79.2779 39.976 79.1222C40.2644 78.9664 40.5826 78.8504 40.9306 78.7741C41.2819 78.6946 41.6349 78.6316 41.9895 78.5852C42.4535 78.5256 42.8297 78.4808 43.1181 78.451C43.4097 78.4179 43.6219 78.3632 43.7544 78.2869C43.8903 78.2107 43.9583 78.0781 43.9583 77.8892V77.8494C43.9583 77.3589 43.824 76.9777 43.5556 76.706C43.2904 76.4342 42.8877 76.2983 42.3475 76.2983C41.7873 76.2983 41.3482 76.4209 41.03 76.6662C40.7118 76.9115 40.4881 77.1733 40.3588 77.4517L39.2452 77.054C39.4441 76.59 39.7092 76.2287 40.0407 75.9702C40.3754 75.7083 40.74 75.526 41.1344 75.4233C41.5321 75.3172 41.9232 75.2642 42.3077 75.2642C42.553 75.2642 42.8347 75.294 43.1529 75.3537C43.4744 75.41 43.7843 75.5277 44.0826 75.7067C44.3842 75.8857 44.6344 76.1558 44.8333 76.517C45.0321 76.8783 45.1316 77.3622 45.1316 77.9688V83H43.9583V81.9659H43.8986C43.8191 82.1316 43.6865 82.3089 43.5009 82.4979C43.3153 82.6868 43.0684 82.8475 42.7601 82.9801C42.4519 83.1127 42.0757 83.179 41.6316 83.179ZM41.8105 82.125C42.2746 82.125 42.6657 82.0339 42.9838 81.8516C43.3053 81.6693 43.5473 81.4339 43.7097 81.1456C43.8754 80.8572 43.9583 80.554 43.9583 80.2358V79.1619C43.9086 79.2216 43.7992 79.2763 43.6301 79.326C43.4644 79.3724 43.2722 79.4138 43.0534 79.4503C42.838 79.4834 42.6275 79.5133 42.4221 79.5398C42.2199 79.563 42.0558 79.5829 41.9299 79.5994C41.6249 79.6392 41.3399 79.7038 41.0748 79.7933C40.8129 79.8795 40.6008 80.0104 40.4384 80.1861C40.2793 80.3584 40.1998 80.5937 40.1998 80.892C40.1998 81.2997 40.3506 81.608 40.6522 81.8168C40.9571 82.0223 41.3432 82.125 41.8105 82.125ZM47.2731 83V75.3636H50.3952C51.2172 75.3636 51.8701 75.5492 52.354 75.9205C52.8379 76.2917 53.0799 76.7822 53.0799 77.392C53.0799 77.8561 52.9424 78.2157 52.6673 78.4709C52.3922 78.7228 52.0392 78.8935 51.6083 78.983C51.89 79.0227 52.1635 79.1222 52.4286 79.2812C52.6971 79.4403 52.9192 79.6591 53.0948 79.9375C53.2705 80.2126 53.3583 80.5507 53.3583 80.9517C53.3583 81.3428 53.2589 81.6925 53.06 82.0007C52.8612 82.3089 52.5761 82.5526 52.2049 82.7315C51.8337 82.9105 51.3896 83 50.8725 83H47.2731ZM48.3867 81.9261H50.8725C51.2769 81.9261 51.5934 81.83 51.8221 81.6378C52.0508 81.4455 52.1651 81.1837 52.1651 80.8523C52.1651 80.4579 52.0508 80.148 51.8221 79.9226C51.5934 79.6939 51.2769 79.5795 50.8725 79.5795H48.3867V81.9261ZM48.3867 78.5653H50.3952C50.7101 78.5653 50.9802 78.5223 51.2056 78.4361C51.431 78.3466 51.6033 78.2206 51.7227 78.0582C51.8453 77.8925 51.9066 77.697 51.9066 77.4716C51.9066 77.1501 51.7724 76.8982 51.5039 76.7159C51.2354 76.5303 50.8659 76.4375 50.3952 76.4375H48.3867V78.5653ZM60.2452 78.6449V79.7386H56.0293V78.6449H60.2452ZM56.3077 75.3636V83H55.1344V75.3636H56.3077ZM61.1401 75.3636V83H59.9668V75.3636H61.1401ZM65.53 83.179C65.0461 83.179 64.6069 83.0878 64.2125 82.9055C63.8181 82.7199 63.5049 82.4531 63.2729 82.1051C63.0409 81.7538 62.9249 81.3295 62.9249 80.8324C62.9249 80.3949 63.0111 80.0402 63.1834 79.7685C63.3558 79.4934 63.5861 79.2779 63.8745 79.1222C64.1628 78.9664 64.481 78.8504 64.829 78.7741C65.1803 78.6946 65.5333 78.6316 65.888 78.5852C66.352 78.5256 66.7282 78.4808 67.0165 78.451C67.3082 78.4179 67.5203 78.3632 67.6529 78.2869C67.7888 78.2107 67.8567 78.0781 67.8567 77.8892V77.8494C67.8567 77.3589 67.7225 76.9777 67.454 76.706C67.1889 76.4342 66.7862 76.2983 66.2459 76.2983C65.6858 76.2983 65.2466 76.4209 64.9284 76.6662C64.6103 76.9115 64.3865 77.1733 64.2573 77.4517L63.1436 77.054C63.3425 76.59 63.6077 76.2287 63.9391 75.9702C64.2739 75.7083 64.6384 75.526 65.0328 75.4233C65.4306 75.3172 65.8217 75.2642 66.2061 75.2642C66.4514 75.2642 66.7331 75.294 67.0513 75.3537C67.3728 75.41 67.6827 75.5277 67.981 75.7067C68.2826 75.8857 68.5328 76.1558 68.7317 76.517C68.9306 76.8783 69.03 77.3622 69.03 77.9688V83H67.8567V81.9659H67.7971C67.7175 82.1316 67.5849 82.3089 67.3993 82.4979C67.2137 82.6868 66.9668 82.8475 66.6586 82.9801C66.3503 83.1127 65.9741 83.179 65.53 83.179ZM65.709 82.125C66.173 82.125 66.5641 82.0339 66.8823 81.8516C67.2038 81.6693 67.4457 81.4339 67.6081 81.1456C67.7739 80.8572 67.8567 80.554 67.8567 80.2358V79.1619C67.807 79.2216 67.6976 79.2763 67.5286 79.326C67.3629 79.3724 67.1706 79.4138 66.9519 79.4503C66.7364 79.4834 66.526 79.5133 66.3205 79.5398C66.1183 79.563 65.9542 79.5829 65.8283 79.5994C65.5234 79.6392 65.2383 79.7038 64.9732 79.7933C64.7114 79.8795 64.4992 80.0104 64.3368 80.1861C64.1777 80.3584 64.0982 80.5937 64.0982 80.892C64.0982 81.2997 64.249 81.608 64.5506 81.8168C64.8555 82.0223 65.2417 82.125 65.709 82.125ZM75.7653 83V76.4375H73.7369C73.2795 76.4375 72.9199 76.5436 72.658 76.7557C72.3962 76.9678 72.2653 77.2595 72.2653 77.6307C72.2653 77.9953 72.3829 78.282 72.6183 78.4908C72.8569 78.6996 73.1834 78.804 73.5977 78.804H76.0636V79.8977H73.5977C73.0806 79.8977 72.6348 79.8066 72.2603 79.6243C71.8858 79.442 71.5974 79.1818 71.3952 78.8438C71.1931 78.5024 71.092 78.098 71.092 77.6307C71.092 77.16 71.198 76.7557 71.4102 76.4176C71.6223 76.0795 71.9255 75.8194 72.32 75.6371C72.7177 75.4548 73.19 75.3636 73.7369 75.3636H76.8789V83H75.7653ZM70.6744 83L72.842 79.2017H74.1147L71.9471 83H70.6744Z" fill="white"/>
<defs>
<linearGradient id="paint0_linear_459_554" x1="50" y1="0" x2="50" y2="100" gradientUnits="userSpaceOnUse">
<stop stop-color="#AA7DDF"/>
<stop offset="1" stop-color="#EF76B7"/>
</linearGradient>
</defs>
</svg>
